PathFileType	4	(X/Y/Z)	..\data\2014015\dynamic\2014015_C5_03.trc
DataRate	CameraRate	NumFrames	NumMarkers	Units	OrigDataRate	OrigDataStartFrame	OrigNumFrames
100.000000	100.000000	4	52	mm	100.000000	40	163
Frame#	Time	L_IAS			L_IPS			R_IPS			R_IAS			L_FTC			L_FLE			L_FME			L_FAX			L_TTC			L_FAL			L_TAM			L_FCC			L_FM1			L_FM2			L_FM5			R_FTC			R_FLE			R_FME			R_FAX			R_TTC			R_FAL			R_TAM			R_FCC			R_FM1			R_FM2			R_FM5			CV7			TV10			SXS			SJN			L_SIA			L_SRS			L_SAA			L_SAE			L_HLE			L_HME			L_UOA			L_RSP			L_UHE			L_HM2			L_HM5			R_SIA			R_SRS			R_SAA			R_SAE			R_HLE			R_HME			R_UOA			R_RSP			R_UHE			R_HM2			R_HM5			
		X1	Y1	Z1	X2	Y2	Z2	X3	Y3	Z3	X4	Y4	Z4	X5	Y5	Z5	X6	Y6	Z6	X7	Y7	Z7	X8	Y8	Z8	X9	Y9	Z9	X10	Y10	Z10	X11	Y11	Z11	X12	Y12	Z12	X13	Y13	Z13	X14	Y14	Z14	X15	Y15	Z15	X16	Y16	Z16	X17	Y17	Z17	X18	Y18	Z18	X19	Y19	Z19	X20	Y20	Z20	X21	Y21	Z21	X22	Y22	Z22	X23	Y23	Z23	X24	Y24	Z24	X25	Y25	Z25	X26	Y26	Z26	X27	Y27	Z27	X28	Y28	Z28	X29	Y29	Z29	X30	Y30	Z30	X31	Y31	Z31	X32	Y32	Z32	X33	Y33	Z33	X34	Y34	Z34	X35	Y35	Z35	X36	Y36	Z36	X37	Y37	Z37	X38	Y38	Z38	X39	Y39	Z39	X40	Y40	Z40	X41	Y41	Z41	X42	Y42	Z42	X43	Y43	Z43	X44	Y44	Z44	X45	Y45	Z45	X46	Y46	Z46	X47	Y47	Z47	X48	Y48	Z48	X49	Y49	Z49	X50	Y50	Z50	X51	Y51	Z51	X52	Y52	Z52	

41	0.4	-691.1130981445314	842.3648681640627	135.5392456054687	-900.579040527344	874.4920654296877	224.0115203857421	-896.7092895507815	877.837585449219	325.5574645996093	-674.6698608398439	839.9448242187502	389.8618469238282	-765.6592407226564	762.7805175781251	78.79429626464835	-631.0595703125001	438.0307006835939	115.2352981567382	-607.6184082031251	430.2676696777345	253.2903594970703	-648.0900878906251	382.0050354003907	113.326805114746	-580.4550170898439	386.9634094238282	155.3337402343749	-712.4791870117189	91.63851165771486	155.2506103515624	-678.5463256835939	102.1207733154297	235.8645324707031	-747.5473632812501	55.33803558349611	203.090576171875	-568.2542724609376	37.16029739379884	221.4069213867188	-564.5909423828126	50.3736038208008	169.6636352539062	-607.2622680664064	34.18564605712891	122.3720397949218	-752.4398193359376	750.9343261718751	448.6897888183594	-826.0218505859377	414.4595642089845	379.2904357910156	-806.7034912109377	398.1843261718751	242.8771667480468	-832.549743652344	360.4747619628907	378.7257995605468	-785.2159423828127	351.0232849121094	314.0289916992187	-932.5227050781252	66.28726196289064	337.8295593261718	-906.5015258789065	84.83513641357423	247.3298797607421	-973.7847290039065	31.91790771484376	293.8901367187499	-796.3222656250002	18.83709144592286	247.9104461669922	-778.418640136719	36.24385070800782	303.6316223144531	-832.2744750976565	28.49192428588868	355.7820129394531	-841.3474121093752	1318.9921875	274.5988769531249	-901.431823730469	1123.600219726563	271.8589477539062	-652.4233398437501	1040.7236328125	252.0028991699218	-717.8526611328126	1249.126342773438	263.2140197753906	-910.616638183594	1151.7353515625	199.6746673583984	-874.2216796875002	1272.706665039063	199.0535125732421	-845.9781494140627	1285.032592773438	136.148452758789	-789.2008056640627	1278.109252929688	91.61569976806632	-836.9573364257815	1013.416259765625	25.21504211425772	-866.9577636718752	996.1210937500002	109.6612854003906	-875.1091308593752	992.0998535156252	60.17419052124014	-774.313171386719	801.9114990234377	47.54094314575187	-826.7650146484377	805.335144042969	-8.958331108093365	-747.1173706054689	715.1243286132814	31.46988296508781	-827.3079223632815	725.8835449218751	-19.67981910705577	-898.0606689453127	1144.533813476563	371.7660522460937	-860.9903564453127	1267.496215820313	358.5397338867187	-831.2641601562502	1270.528930664063	415.7447814941406	-752.2395629882814	1267.73828125	442.3306579589844	-759.1348876953127	995.0952758789065	522.1140747070312	-815.6995239257815	984.054626464844	439.7544250488281	-807.5267333984378	974.1535644531252	496.6542663574219	-665.7979125976565	803.3959960937502	480.7890625000001	-712.6382446289065	788.5496826171877	542.282470703125	-623.8164672851565	718.3936157226564	496.5005187988282	-710.702087402344	717.9421386718751	546.59912109375	
42	0.41	-678.2050781250001	840.2627563476565	135.4035339355468	-888.250183105469	871.9832153320315	221.1764221191406	-885.2754516601565	875.9707031250002	322.9776306152343	-662.9331054687501	837.2219238281252	389.2253723144532	-751.2947387695314	761.1401977539064	77.22064208984368	-618.2603759765626	436.0460510253907	116.3928146362304	-595.8899536132814	428.7381896972657	254.7676544189453	-632.2545776367189	378.9400329589844	114.4511337280273	-565.2623901367189	387.2771606445314	156.4432830810547	-674.6021118164064	84.41023254394533	154.2616119384765	-641.5379028320314	97.00862884521487	234.841079711914	-707.1546020507814	45.79516220092774	201.8904876708984	-527.3579711914064	40.28004837036134	220.6774749755859	-524.2743530273439	53.73983383178712	169.0226287841797	-565.6320800781251	34.56298446655274	121.4506378173828	-741.8299560546876	749.4746704101564	447.7406311035156	-821.168640136719	414.1672668457032	378.5613708496093	-801.428161621094	397.1874084472657	242.3230590820312	-828.4100341796877	360.2609558105469	378.0792236328124	-781.041687011719	350.0029907226563	313.5643615722656	-932.1570434570315	67.33135223388673	337.3778076171874	-905.8172607421877	85.47544097900392	246.8223419189453	-973.641540527344	33.31460189819337	293.3659362792968	-796.3718872070315	18.85203933715821	247.7536010742187	-778.5917968750002	36.20780563354493	303.6044311523437	-832.5186157226565	28.57296562194825	355.4877624511718	-828.5454711914065	1317.107055664063	274.5732727050781	-889.035827636719	1121.91064453125	272.0644226074218	-640.2319335937501	1038.591918945313	250.8455963134765	-705.1520996093751	1247.288818359375	262.4727478027343	-898.4620361328127	1149.905883789063	200.1039581298828	-861.943298339844	1270.844116210938	199.3751220703124	-834.205017089844	1283.083374023438	136.2735900878905	-777.9553833007815	1276.156005859375	91.31784820556632	-826.4765625000002	1011.652770996094	25.04944038391104	-855.7053222656252	994.1345214843752	109.771873474121	-864.1727294921877	990.304382324219	60.43965530395499	-763.9656982421876	800.0225830078127	45.6967239379882	-817.7134399414065	803.6665649414065	-9.789730072021586	-737.2492675781251	713.2749023437501	28.60608673095695	-818.4797363281252	724.2412719726564	-20.91390609741221	-884.871520996094	1142.95947265625	372.1535644531249	-847.6992797851565	1265.870361328125	358.7586975097656	-817.564147949219	1268.793823242188	415.7733459472656	-738.2880859375001	1265.900756835938	441.7319641113281	-743.7957153320315	993.4787597656252	521.76171875	-801.342468261719	982.0007934570315	440.0436096191406	-792.3677368164066	972.1437988281252	496.7294006347656	-649.1676025390627	802.714294433594	479.7084045410157	-695.4365234375002	787.234069824219	541.40185546875	-606.0360107421877	718.2520141601564	495.0007629394532	-692.7974853515627	716.6169433593751	545.5033569335938	
43	0.42	-665.2714843750001	837.9990844726565	134.9285278320312	-875.809265136719	869.3183593750002	218.3045196533203	-873.8167724609377	873.959411621094	320.3107604980468	-651.2336425781251	834.370300292969	388.6665649414063	-736.8427734375001	759.3087158203126	75.60794067382805	-606.3802490234376	433.5871887207032	117.5221710205078	-584.8433227539064	426.6142883300782	256.4066467285156	-617.2647705078126	375.7653503417969	115.5786666870117	-550.8707275390626	387.3118896484376	157.4704437255859	-637.2301025390626	78.6035842895508	153.3067932128906	-604.8950195312501	93.15988922119142	233.7400665283203	-667.0631713867189	37.78180694580079	200.7936859130859	-487.508026123047	44.73814392089844	219.6985626220703	-485.045623779297	58.39994049072267	168.0989990234375	-525.0386352539064	36.34441757202149	120.364387512207	-731.2889404296876	747.9029541015626	446.8180847167969	-815.8939208984377	413.8582763671876	377.8232421874999	-795.5511474609377	396.1840209960939	241.8241882324218	-823.8405761718752	360.0581054687501	377.4367370605468	-776.475036621094	348.9723205566407	313.1199035644531	-931.692077636719	68.55622863769533	337.0232543945312	-905.0398559570315	86.25901031494142	246.3853607177734	-973.4815063476565	34.98690414428712	292.9572143554687	-796.4133911132815	18.90011978149414	247.6142272949218	-778.7449951171877	36.16832733154298	303.6025085449218	-832.7147216796877	28.66296195983887	355.2339172363281	-815.7507934570315	1315.056762695313	274.5165405273437	-876.627380371094	1120.07275390625	272.1859436035156	-628.0328979492189	1036.2900390625	249.6833801269531	-692.4020996093751	1245.30224609375	261.6968383789062	-886.2789306640627	1147.8896484375	200.4832000732421	-849.6736450195315	1268.81298828125	199.6569366455078	-822.4578247070315	1280.973510742188	136.3759460449218	-766.7745361328126	1274.060668945313	90.98982238769523	-815.9378051757815	1009.693664550781	24.9303092956542	-844.2906494140627	991.9230957031252	109.9436798095702	-853.115417480469	988.2944946289065	60.77323150634756	-753.3421630859376	798.0012207031252	43.89416885375968	-808.5222167968752	801.809753417969	-10.54940032958995	-727.2191772460939	711.2929687500001	25.78992843627922	-809.465026855469	722.4042358398439	-22.06552124023448	-871.668884277344	1141.28076171875	372.4721984863281	-834.3948364257815	1264.140747070313	358.9321289062499	-803.864929199219	1266.95947265625	415.7359313964844	-724.3254394531251	1263.943115234375	441.0715942382812	-728.4631958007815	991.7580566406252	521.299072265625	-786.9590454101565	979.8233032226565	440.2117614746094	-777.2135009765628	970.0495605468752	496.684326171875	-632.6771240234377	801.8861083984377	478.5454711914063	-678.3336181640627	785.827575683594	540.445556640625	-588.3999023437502	717.9738769531251	493.4592895507813	-675.0073852539065	715.2130737304689	544.3732299804688	
44	0.43	-652.3206787109376	835.6285400390627	134.1115112304687	-863.2535400390627	866.5767211914065	215.4712677001953	-862.3012695312502	871.8314208984377	317.6040649414062	-639.5687255859376	831.4764404296877	388.1853027343751	-722.3821411132814	757.2978515625001	73.98334503173821	-595.2549438476564	430.7304077148439	118.6163940429687	-574.3790893554689	423.995086669922	258.1960754394531	-602.9957275390626	372.5525207519532	116.6922225952148	-537.1524658203126	387.1315917968751	158.4500122070312	-600.7238769531251	74.22041320800783	152.3736267089843	-569.0039672851564	90.59752655029298	232.5819854736328	-627.7056884765626	31.32453346252442	199.7814483642578	-449.0385131835939	50.409969329834	218.5034637451172	-447.2255249023439	64.2110061645508	166.9232635498047	-485.8314514160157	39.39780044555665	119.1441116333008	-720.8193359375001	746.2625732421876	445.9271545410156	-810.1503906250002	413.5372314453126	377.0832824707031	-789.0415039062502	395.1898803710939	241.3843841552734	-818.7896118164065	359.8657531738282	376.8063964843749	-771.4803466796877	347.9350585937501	312.6888732910156	-931.1133422851565	69.97987365722658	336.7921752929687	-904.176208496094	87.2236785888672	246.0399322509765	-973.307312011719	36.96908569335938	292.7009277343749	-796.4324951171877	18.97439002990723	247.5034790039062	-778.8548583984377	36.13333892822266	303.6307983398437	-832.834655761719	28.76998710632325	355.0306091308593	-802.9588623046877	1312.87255859375	274.4156494140624	-864.195251464844	1118.11572265625	272.2064208984374	-615.8013305664064	1033.860107421875	248.5220031738281	-679.5928955078126	1243.187866210938	260.8807678222656	-874.0534667968752	1145.720825195313	200.794937133789	-837.3984985351565	1266.645263671875	199.879165649414	-810.7149047851565	1278.735961914063	136.4383697509765	-755.6215209960939	1271.854614257813	90.62287902832023	-805.3223876953127	1007.568420410156	24.8513584136962	-832.6964111328127	989.5232543945315	110.1645812988281	-841.9288330078127	986.1030883789065	61.16178131103506	-742.4737548828126	795.8637695312502	42.14918899536124	-799.1658935546877	799.7927856445315	-11.23777675628672	-717.0303344726564	709.2009277343751	23.04710006713859	-800.2489013671877	720.4031982421876	-23.13592529296885	-858.456481933594	1139.5224609375	372.7033386230468	-821.0804443359377	1262.332641601563	359.0426330566406	-790.1743164062502	1265.051635742188	415.6177673339844	-710.3680419921876	1261.89453125	440.3426818847656	-713.1702270507815	989.954284667969	520.7138671875	-772.543395996094	977.5482177734377	440.2253112792969	-762.0849609375002	967.8897094726565	496.4933471679688	-616.3306274414065	800.932556152344	477.2974243164063	-661.358825683594	784.3552856445315	539.4074096679688	-570.932556152344	717.5715332031251	491.8881530761719	-657.357604980469	713.7571411132814	543.2122802734375	
